# xmcd CD database file
#
# Track frame offsets:
#	150
#	19841
#	35911
#	40113
#	44966
#	64920
#	71065
#	87345
#	93289
#	99698
#	124155
#	141565
#	175892
#	184431
#	204858
#
# Disc length: 2987 seconds
#
# Revision: 4
# Processed by: cddbd v1.5.2PL0 Copyright (c) Steve Scherf et al.
# Submitted via: CDex 1.70beta2
#
DISCID=e80ba90f
DTITLE=Joe Hisaishi - Brother, Music from the motion picture
DYEAR=2000
DGENRE=Soundtrack
TTITLE0=Drifter... in LAX
TTITLE1=Solitude
TTITLE2=Tattoo
TTITLE3=Death Spiral
TTITLE4=Party ~ one yea later ~
TTITLE5=One the shore
TTITLE6=Blood brother
TTITLE7=Raging men
TTITLE8=Beyond the control
TTITLE9=Wipe out
TTITLE10=Liberation from the death
TTITLE11=I love you... Aniki
TTITLE12=Ballade
TTITLE13=BROTHER
TTITLE14=BROTHER -remix version-
EXTD=YEAR: 2000
EXTT0=
EXTT1=
EXTT2=
EXTT3=
EXTT4=
EXTT5=
EXTT6=
EXTT7=
EXTT8=
EXTT9=
EXTT10=
EXTT11=
EXTT12=
EXTT13=
EXTT14=
PLAYORDER=
